<svg xmlns="http://www.w3.org/2000/svg" width="232.879" height="89.349" viewBox="0 0 232.879 89.349">
  <g id="Group_6164" data-name="Group 6164" transform="translate(-119 -27)">
    <text id="BLACKLION" transform="translate(218.879 93.175)" fill="#fff" font-size="59" font-family="New Title Variable" font-weight="700"><tspan x="0" y="0">BLACKLION</tspan></text>
    <g id="Group_164" data-name="Group 164" transform="translate(119 27)">
      <path id="Path_911" data-name="Path 911" d="M214.259,158.2l2.351-7.456a7.154,7.154,0,0,0-2.6-8l-6.228-5.079-4.219-13.378a7.154,7.154,0,0,0-6.8-4.943H185.318l-5.461-4.454a7.154,7.154,0,0,0-8.41,0l-5.461,4.454H154.544a7.154,7.154,0,0,0-6.8,4.943l-4.219,13.378-6.228,5.079a7.154,7.154,0,0,0-2.6,8l2.351,7.456-2.351,7.456a7.154,7.154,0,0,0,2.6,8l6.228,5.079,4.219,13.378a7.154,7.154,0,0,0,6.8,4.944h11.442l5.461,4.454a7.154,7.154,0,0,0,8.41,0l5.461-4.454h11.442a7.154,7.154,0,0,0,6.8-4.944l4.219-13.378,6.228-5.079a7.154,7.154,0,0,0,2.6-8Z" transform="translate(-134.343 -113.53)"/>
      <path id="Path_912" data-name="Path 912" d="M214.259,158.2l2.351-7.456a7.154,7.154,0,0,0-2.6-8l-6.228-5.079-4.219-13.378a7.154,7.154,0,0,0-6.8-4.943H185.318l-5.461-4.454a7.154,7.154,0,0,0-8.41,0l-5.461,4.454H154.544a7.154,7.154,0,0,0-6.8,4.943l-4.219,13.378-6.228,5.079a7.154,7.154,0,0,0-2.6,8l2.351,7.456-2.351,7.456a7.154,7.154,0,0,0,2.6,8l6.228,5.079,4.219,13.378a7.154,7.154,0,0,0,6.8,4.944h11.442l5.461,4.454a7.154,7.154,0,0,0,8.41,0l5.461-4.454h11.442a7.154,7.154,0,0,0,6.8-4.944l4.219-13.378,6.228-5.079a7.154,7.154,0,0,0,2.6-8Z" transform="translate(-134.343 -113.53)" fill="#fff"/>
      <path id="Path_913" data-name="Path 913" d="M225.6,222.663c-1.613-.393-3.215-.827-4.823-1.239a1.681,1.681,0,0,0-1.033,0c-1.049.4-2.091.827-3.137,1.241-.156.062-.322.133-.275.33.05.213.254.15.4.151.727.006,1.454.02,2.18,0,.373-.012.635.086.722.468a2.621,2.621,0,0,0,3.052,2.215c.753-.046,1.02.339,1.115,1.049a6.118,6.118,0,0,0,.494,2.314c.637-1.913,1.216-3.724,1.85-5.516C226.361,223.064,226.2,222.811,225.6,222.663Z" transform="translate(-191.402 -188.572)" fill="none"/>
      <path id="Path_914" data-name="Path 914" d="M244.2,325.183l-6.086.814v2.319a4.72,4.72,0,0,0,4,4.177,30.685,30.685,0,0,0,5.707.3h.109a30.685,30.685,0,0,0,5.707-.3,4.72,4.72,0,0,0,4-4.177v-2.48l-6.086-.653Z" transform="translate(-206.572 -260.847)" fill="#222c41"/>
      <g id="Group_163" data-name="Group 163" transform="translate(20.37 19.29)">
        <path id="Path_915" data-name="Path 915" d="M260.915,242.491l.008.221a4.757,4.757,0,0,0,1.272-.169c1.088-.314,2.086-1.582,2.8-2.562a2.26,2.26,0,0,0,.366-1.12c.024-4.618.016-9.236.016-13.855v-.191a.594.594,0,0,1,.413-.565l7.7-2.462a.425.425,0,0,0,.287-.4l.3-3.414a.425.425,0,0,0-.5-.419l-9,1.509c-.653.015-.734.218-.735.863q-.016,7.446-.031,14.892c0,.217,0,.434,0,.693a1.527,1.527,0,0,1-.208-.086,4.922,4.922,0,0,0-6.207.211,3.394,3.394,0,0,0-.107,5.261c.669.685,1.492,1.69,2.331,1.754.215.016.432.033.647.045l.012-.228Z" transform="translate(-239.462 -205.22)" fill="#fff"/>
        <path id="Path_916" data-name="Path 916" d="M230.73,219.063l-9-1.509a.425.425,0,0,0-.5.419l.3,3.414a.425.425,0,0,0,.287.4l8.9,2.691.74-4.554C231.464,219.281,231.384,219.078,230.73,219.063Z" transform="translate(-215.196 -205.22)" fill="#fff"/>
        <path id="Path_917" data-name="Path 917" d="M243.2,196.2a38.656,38.656,0,0,0-1.329-6.63c-.492-2.037-1.036-4.062-1.577-6.086-1.117-4.176-3.571-6.187-7.915-6.366-2.692-.111-5.389-.073-8.083-.131H220.3c-2.694.058-5.392.02-8.083.131-4.344.179-6.8,2.19-7.915,6.366-.542,2.024-1.086,4.049-1.577,6.086a38.648,38.648,0,0,0-1.329,6.63c-.344,5.523,1.648,10.2,5.178,14.334l3.312.344-.792,8.408c.416.992.863,1.846,1.933,2.081L221.76,220.3h.109l.3-5.831c-.216-.012-.432-.028-.647-.045-.839-.064-1.662-1.069-2.331-1.754a3.394,3.394,0,0,1,.107-5.261,4.922,4.922,0,0,1,6.206-.211,1.53,1.53,0,0,0,.208.086c0-.259,0-.476,0-.693q.015-7.446.031-14.892c0-.645.082-.848.735-.863l9-1.509a.425.425,0,0,1,.5.419l-.3,3.414a.425.425,0,0,1-.287.4l-7.7,2.462a.594.594,0,0,0-.412.565v.191c0,4.618.008,9.236-.016,13.855a2.26,2.26,0,0,1-.366,1.12c-.71.98-1.708,2.247-2.8,2.562a4.756,4.756,0,0,1-1.272.169l.207,5.834,10.54,1.054c1.069-.235,1.517-1.089,1.933-2.081l-.792-8.408,3.312-.344C241.548,206.407,243.54,201.728,243.2,196.2Zm-26.308.046-8.9-2.691a.425.425,0,0,1-.287-.4l-.3-3.414a.425.425,0,0,1,.5-.419l9,1.509c.653.015.734.218.735.863Z" transform="translate(-201.358 -176.99)" fill="#222c41"/>
        <path id="Path_918" data-name="Path 918" d="M270.471,299.552l-.627-.023-.012.228c.216.012.432.018.647.016Z" transform="translate(-249.018 -262.281)"/>
        <path id="Path_919" data-name="Path 919" d="M268.826,319.464l0,.074h1.163l0-.054-.193-.019Z" transform="translate(-248.315 -276.156)"/>
      </g>
    </g>
  </g>
</svg>
